<?xml version="1.0" encoding="utf-8"?>
<!-- Generator: Adobe Illustrator 16.0.0, SVG Export Plug-In . SVG Version: 6.00 Build 0)  -->
<!DOCTYPE svg PUBLIC "-//W3C//DTD SVG 1.1//EN" "http://www.w3.org/Graphics/SVG/1.1/DTD/svg11.dtd">
<svg version="1.1" id="Capa_1" xmlns="http://www.w3.org/2000/svg" xmlns:xlink="http://www.w3.org/1999/xlink" x="0px" y="0px"
	 width="362.207px" height="234.241px" viewBox="0 0 362.207 234.241" enable-background="new 0 0 362.207 234.241"
	 xml:space="preserve">
<g>
	<g>
		<g>
			<g>
				<path fill="#EA6E6E" d="M334.168,65.721c7.867-15.114,1.994-33.75-13.123-41.618c-15.115-7.869-33.75-1.993-41.617,13.122
					c-0.02,0.039-0.035,0.076-0.053,0.116l-0.006-0.002l-64.83,124.532l0.004,0.003c-7.822,15.106-1.947,33.7,13.148,41.558
					s33.697,2.009,41.586-13.062l0.002,0.001l64.83-124.537l-0.006-0.003C334.125,65.793,334.148,65.76,334.168,65.721z"/>
				<path fill="#FFFFFF" d="M241.912,209.424c-5.314,0-10.631-1.306-15.375-3.774c-15.645-8.144-22.145-27.076-15.131-43.007
					l-0.059-0.044l0.975-1.882l64.859-124.59c0.003-0.007,0.006-0.014,0.01-0.021c0.027-0.052,0.055-0.104,0.082-0.156l0.859-1.651
					l0.059,0.02c6.032-10.06,16.818-16.209,28.633-16.209c5.314,0,10.631,1.306,15.375,3.775c7.903,4.114,13.731,11.06,16.41,19.558
					c2.436,7.723,2.006,15.887-1.181,23.243l0.071,0.035l-0.986,1.905c-0.042,0.083-0.084,0.166-0.127,0.249l-0.059,0.112
					l-65.815,126.429l-0.073-0.023C264.406,203.333,253.663,209.424,241.912,209.424z M217.264,162.052l-0.5,0.972
					c-7.176,13.856-1.756,30.988,12.082,38.19c4.035,2.1,8.553,3.21,13.066,3.21c10.602,0,20.238-5.83,25.15-15.214l0.64-1.224
					l63.012-121.044l-0.058-0.029l1.324-2.403c3.474-6.732,4.128-14.373,1.861-21.563c-2.278-7.225-7.232-13.129-13.951-16.626
					c-4.092-2.131-8.488-3.211-13.066-3.211c-10.609,0-20.242,5.83-25.152,15.219l-0.965,2.085l-0.103-0.034L217.264,162.052z"/>
			</g>
			<g>
				<path fill="#34A3C1" d="M276.773,158.634c-5.773,0-10.779-3.266-13.289-8.045l-0.02,0.011l-51.838-99.578l-0.006,0.003
					c-0.02-0.038-0.031-0.077-0.053-0.114c-7.867-15.115-26.502-20.992-41.619-13.124c-15.114,7.87-20.99,26.505-13.123,41.619
					c0.021,0.038,0.045,0.073,0.066,0.11l-0.006,0.003l57.705,110.849l0.004-0.001c7.887,15.072,26.488,20.925,41.582,13.065
					c5.77-3.001,10.176-7.577,13.004-12.92l20.572-39.371C287.154,155.615,282.32,158.634,276.773,158.634z"/>
				<path fill="#FFFFFF" d="M241.959,209.424c-11.799,0-22.584-6.143-28.604-16.16l-0.062,0.016l-0.92-1.758L153.494,78.414
					l0.082-0.041c-6.858-15.941-0.352-34.696,15.219-42.805c4.744-2.469,10.061-3.774,15.375-3.774
					c11.719,0,22.424,6.048,28.469,15.932l0.066-0.033l1.141,2.175l51.01,97.99l0.842,1.568c2.174,4.138,6.418,6.708,11.076,6.708
					c4.434,0,8.579-2.395,10.818-6.249l4.377,2.414l-20.572,39.371c-3.185,6.019-8.046,10.849-14.064,13.979
					C252.59,208.119,247.273,209.424,241.959,209.424z M216.365,188.36l0.445,0.847c4.911,9.387,14.548,15.217,25.148,15.217
					c4.578,0,8.974-1.08,13.064-3.21c5.115-2.66,9.246-6.766,11.948-11.871l15.188-29.067c-1.72,0.561-3.535,0.858-5.387,0.858
					c-5.664,0-10.889-2.712-14.157-7.215l-0.169,0.093l-1.2-2.258l-50.704-97.4l-0.014,0.007l-1.207-2.354
					c-4.951-9.408-14.564-15.213-25.152-15.213c-4.579,0-8.975,1.08-13.066,3.21c-13.848,7.211-19.263,24.328-12.092,38.186
					l0.045,0.074l1.333,2.305l-0.11,0.055L216.365,188.36z"/>
			</g>
			<g>
				<path fill="#DB4949" d="M219.098,82.586c-5.773-0.001-10.777,3.264-13.289,8.043l-0.02-0.009l-58.961,113.264l-0.006-0.003
					c-0.02,0.038-0.032,0.077-0.052,0.113c-7.868,15.115-26.503,20.991-41.619,13.125c-15.115-7.871-20.99-26.506-13.123-41.62
					c0.021-0.039,0.045-0.073,0.065-0.109l-0.006-0.003l64.829-124.536l0.003,0.002c7.889-15.071,26.491-20.925,41.584-13.064
					c5.768,3,10.176,7.575,13.002,12.918l20.572,39.371C229.479,85.603,224.646,82.585,219.098,82.586z"/>
				<path fill="#FFFFFF" d="M119.371,223.11c-5.314,0-10.63-1.305-15.374-3.773c-15.594-8.12-22.097-26.921-15.224-42.812
					l-0.071-0.035l0.928-1.794c0.059-0.117,0.119-0.234,0.18-0.351l0.06-0.112l66.116-127.007l0.103,0.068
					c6.092-9.626,16.659-15.499,28.197-15.499c5.314,0,10.63,1.306,15.373,3.775c6.018,3.131,10.88,7.96,14.059,13.967
					l20.576,39.382l-2.195,1.211v2.447l-0.005-2.444l-2.177,1.2c-2.238-3.854-6.382-6.247-10.815-6.247
					c-4.662,0-8.905,2.569-11.079,6.706l-1.115,2.122l-0.01-0.005l-58.982,113.302l-0.07-0.035
					C141.818,217.05,131.102,223.109,119.371,223.11z M94.212,176.717c-7.169,13.857-1.754,30.974,12.093,38.185
					c4.091,2.129,8.487,3.209,13.064,3.209c10.608-0.001,20.24-5.828,25.152-15.212c0.024-0.054,0.049-0.106,0.076-0.159
					l1.125-2.191l0.019,0.009l58.943-113.226l0.174,0.083c3.263-4.571,8.527-7.328,14.238-7.328c1.854,0,3.67,0.298,5.39,0.858
					l-15.194-29.08c-2.695-5.094-6.826-9.198-11.941-11.858c-4.092-2.131-8.486-3.211-13.064-3.211
					c-10.601,0-20.238,5.831-25.151,15.217l-0.713,1.363L95.479,174.287l0.083,0.042L94.212,176.717z"/>
			</g>
			<g>
				<path fill="#288AAD" d="M154.106,172.318c-5.772,0-10.777-3.265-13.288-8.044l-0.021,0.011L88.96,64.706l-0.006,0.003
					c-0.019-0.037-0.032-0.076-0.053-0.114c-7.868-15.115-26.503-20.991-41.618-13.123c-15.114,7.869-20.99,26.504-13.123,41.619
					c0.021,0.038,0.045,0.072,0.065,0.11l-0.006,0.003l57.704,110.849l0.004-0.002c7.888,15.073,26.489,20.926,41.584,13.066
					c5.768-3.001,10.176-7.577,13.002-12.92l20.572-39.371C164.488,169.301,159.655,172.318,154.106,172.318z"/>
				<path fill="#FFFFFF" d="M119.293,223.109c-11.641,0-22.294-5.979-28.359-15.759l-0.085,0.043l-1.143-2.187L31.967,94.29
					c-0.002-0.004-0.005-0.009-0.008-0.014c-0.02-0.039-0.041-0.078-0.061-0.117l-1.074-2.063l0.08-0.04
					c-6.861-15.911-0.357-34.688,15.225-42.802c4.744-2.469,10.06-3.774,15.375-3.774c11.718,0,22.423,6.048,28.468,15.931
					l0.066-0.033l1.139,2.175l51.013,97.995l0.841,1.564c2.173,4.138,6.417,6.707,11.075,6.707c4.435,0,8.581-2.394,10.818-6.248
					l4.378,2.414l-20.572,39.371c-3.183,6.017-8.044,10.848-14.064,13.979C129.923,221.805,124.607,223.109,119.293,223.109z
					 M93.625,201.904l0.519,0.987c4.912,9.387,14.549,15.218,25.15,15.218c4.578,0,8.973-1.08,13.064-3.21
					c5.116-2.661,9.247-6.767,11.947-11.871l15.189-29.068c-1.719,0.561-3.535,0.858-5.387,0.858c-5.68,0-10.919-2.727-14.185-7.254
					l-0.165,0.086l-1.177-2.211L87.876,68.038l-0.036,0.018l-1.182-2.357c-4.932-9.401-14.556-15.219-25.154-15.219
					c-4.579,0-8.975,1.08-13.066,3.21c-13.847,7.209-19.262,24.325-12.093,38.184c0.029,0.048,0.056,0.094,0.082,0.142l1.228,2.279
					l-0.039,0.019L93.625,201.904z"/>
			</g>
		</g>
		<g>
			<path fill="#0D3A84" d="M184.164,0"/>
		</g>
	</g>
</g>
</svg>
